HIERARCHY
ROOT pelvis
{
	OFFSET 0.003123 -0.351407 0.012037
	CHANNELS 6 Xposition Yposition Zposition Zrotation Yrotation Xrotation 
	JOINT left_hip
	{
		OFFSET 0.058189 -0.092763 -0.026001
		CHANNELS 3 Zrotation Yrotation Xrotation
		JOINT left_knee
		{
			OFFSET 0.054695 -0.378753 -0.009396
			CHANNELS 3 Zrotation Yrotation Xrotation
			JOINT left_ankle
			{
				OFFSET -0.043453 -0.403059 -0.031876
				CHANNELS 3 Zrotation Yrotation Xrotation
				JOINT left_foot
				{
					OFFSET 0.047257 -0.057997 0.118216
					CHANNELS 3 Zrotation Yrotation Xrotation
					End Site
					{
						OFFSET 0.000000 0.000000 0.000000
					}
				}
			}
		}
	}
	JOINT right_hip
	{
		OFFSET -0.063267 -0.103908 -0.021250
		CHANNELS 3 Zrotation Yrotation Xrotation
		JOINT right_knee
		{
			OFFSET -0.044210 -0.362380 -0.016824
			CHANNELS 3 Zrotation Yrotation Xrotation
			JOINT right_ankle
			{
				OFFSET 0.015417 -0.410728 -0.020192
				CHANNELS 3 Zrotation Yrotation Xrotation
				JOINT right_foot
				{
					OFFSET -0.038812 -0.058328 0.119049
					CHANNELS 3 Zrotation Yrotation Xrotation
					End Site
					{
						OFFSET 0.000000 0.000000 0.000000
					}
				}
			}
		}
	}
	JOINT spine_1
	{
		OFFSET -0.002763 0.109891 -0.027618
		CHANNELS 3 Zrotation Yrotation Xrotation
		JOINT spine_2
		{
			OFFSET 0.009448 0.131853 -0.005940
			CHANNELS 3 Zrotation Yrotation Xrotation
			JOINT spine_3
			{
				OFFSET -0.011330 0.052235 0.028447
				CHANNELS 3 Zrotation Yrotation Xrotation
				JOINT neck
				{
					OFFSET -0.012164 0.165167 -0.031615
					CHANNELS 3 Zrotation Yrotation Xrotation
					JOINT head
					{
						OFFSET 0.024783 0.160452 0.020737
						CHANNELS 3 Zrotation Yrotation Xrotation
						End Site
						{
							OFFSET 0.000000 0.000000 0.000000
						}
					}
				}
				JOINT left_collar
				{
					OFFSET 0.046364 0.084944 -0.007220
					CHANNELS 3 Zrotation Yrotation Xrotation
					JOINT left_shoulder
					{
						OFFSET 0.119239 0.057728 -0.015461
						CHANNELS 3 Zrotation Yrotation Xrotation
						JOINT left_elbow
						{
							OFFSET 0.254123 -0.072151 -0.042459
							CHANNELS 3 Zrotation Yrotation Xrotation
							JOINT left_wrist
							{
								OFFSET 0.251987 0.023221 -0.002472
								CHANNELS 3 Zrotation Yrotation Xrotation
								JOINT left_index_1
								{
									OFFSET 0.101902 -0.008688 0.019351
									CHANNELS 3 Zrotation Yrotation Xrotation
									JOINT left_index_2
									{
										OFFSET 0.030149 -0.011154 0.001151
										CHANNELS 3 Zrotation Yrotation Xrotation
										JOINT left_index_3
										{
											OFFSET 0.006504 -0.021577 -0.002433
											CHANNELS 3 Zrotation Yrotation Xrotation
											End Site
											{
												OFFSET 0.000000 0.000000 0.000000
											}
										}
									}
								}
								JOINT left_middle_1
								{
									OFFSET 0.109398 -0.006328 -0.003981
									CHANNELS 3 Zrotation Yrotation Xrotation
									JOINT left_middle_2
									{
										OFFSET 0.026472 -0.015218 -0.004641
										CHANNELS 3 Zrotation Yrotation Xrotation
										JOINT left_middle_3
										{
											OFFSET 0.005022 -0.023347 -0.001911
											CHANNELS 3 Zrotation Yrotation Xrotation
											End Site
											{
												OFFSET 0.000000 0.000000 0.000000
											}
										}
									}
								}
								JOINT left_pinky_1
								{
									OFFSET 0.084047 -0.014539 -0.043750
									CHANNELS 3 Zrotation Yrotation Xrotation
									JOINT left_pinky_2
									{
										OFFSET 0.012124 -0.014448 -0.005375
										CHANNELS 3 Zrotation Yrotation Xrotation
										JOINT left_pinky_3
										{
											OFFSET 0.003798 -0.018853 0.000167
											CHANNELS 3 Zrotation Yrotation Xrotation
											End Site
											{
												OFFSET 0.000000 0.000000 0.000000
											}
										}
									}
								}
								JOINT left_ring_1
								{
									OFFSET 0.097444 -0.009268 -0.027345
									CHANNELS 3 Zrotation Yrotation Xrotation
									JOINT left_ring_2
									{
										OFFSET 0.023561 -0.016057 -0.001895
										CHANNELS 3 Zrotation Yrotation Xrotation
										JOINT left_ring_3
										{
											OFFSET 0.004257 -0.023548 0.000814
											CHANNELS 3 Zrotation Yrotation Xrotation
											End Site
											{
												OFFSET 0.000000 0.000000 0.000000
											}
										}
									}
								}
								JOINT left_thumb_1
								{
									OFFSET 0.040636 -0.017977 0.025611
									CHANNELS 3 Zrotation Yrotation Xrotation
									JOINT left_thumb_2
									{
										OFFSET 0.021637 -0.017639 0.011623
										CHANNELS 3 Zrotation Yrotation Xrotation
										JOINT left_thumb_3
										{
											OFFSET 0.024002 -0.008356 0.006548
											CHANNELS 3 Zrotation Yrotation Xrotation
											End Site
											{
												OFFSET 0.000000 0.000000 0.000000
											}
										}
									}
								}
							}
						}
					}
				}
				JOINT right_collar
				{
					OFFSET -0.047695 0.084339 -0.013400
					CHANNELS 3 Zrotation Yrotation Xrotation
					JOINT right_shoulder
					{
						OFFSET -0.102578 0.053524 -0.012669
						CHANNELS 3 Zrotation Yrotation Xrotation
						JOINT right_elbow
						{
							OFFSET -0.271150 -0.036492 -0.026467
							CHANNELS 3 Zrotation Yrotation Xrotation
							JOINT right_wrist
							{
								OFFSET -0.249267 -0.004533 -0.015325
								CHANNELS 3 Zrotation Yrotation Xrotation
								JOINT right_index_1
								{
									OFFSET -0.099881 -0.011783 0.019600
									CHANNELS 3 Zrotation Yrotation Xrotation
									JOINT right_index_2
									{
										OFFSET -0.030148 -0.011154 0.001151
										CHANNELS 3 Zrotation Yrotation Xrotation
										JOINT right_index_3
										{
											OFFSET -0.006505 -0.021577 -0.002432
											CHANNELS 3 Zrotation Yrotation Xrotation
											End Site
											{
												OFFSET 0.000000 0.000000 0.000000
											}
										}
									}
								}
								JOINT right_middle_1
								{
									OFFSET -0.107376 -0.009422 -0.003734
									CHANNELS 3 Zrotation Yrotation Xrotation
									JOINT right_middle_2
									{
										OFFSET -0.026472 -0.015218 -0.004641
										CHANNELS 3 Zrotation Yrotation Xrotation
										JOINT right_middle_3
										{
											OFFSET -0.005022 -0.023347 -0.001911
											CHANNELS 3 Zrotation Yrotation Xrotation
											End Site
											{
												OFFSET 0.000000 0.000000 0.000000
											}
										}
									}
								}
								JOINT right_pinky_1
								{
									OFFSET -0.082027 -0.017634 -0.043503
									CHANNELS 3 Zrotation Yrotation Xrotation
									JOINT right_pinky_2
									{
										OFFSET -0.012123 -0.014448 -0.005374
										CHANNELS 3 Zrotation Yrotation Xrotation
										JOINT right_pinky_3
										{
											OFFSET -0.003798 -0.018852 0.000167
											CHANNELS 3 Zrotation Yrotation Xrotation
											End Site
											{
												OFFSET 0.000000 0.000000 0.000000
											}
										}
									}
								}
								JOINT right_ring_1
								{
									OFFSET -0.095423 -0.012362 -0.027099
									CHANNELS 3 Zrotation Yrotation Xrotation
									JOINT right_ring_2
									{
										OFFSET -0.023561 -0.016057 -0.001895
										CHANNELS 3 Zrotation Yrotation Xrotation
										JOINT right_ring_3
										{
											OFFSET -0.004257 -0.023548 0.000816
											CHANNELS 3 Zrotation Yrotation Xrotation
											End Site
											{
												OFFSET 0.000000 0.000000 0.000000
											}
										}
									}
								}
								JOINT right_thumb_1
								{
									OFFSET -0.038613 -0.021074 0.025861
									CHANNELS 3 Zrotation Yrotation Xrotation
									JOINT right_thumb_2
									{
										OFFSET -0.021636 -0.017639 0.011623
										CHANNELS 3 Zrotation Yrotation Xrotation
										JOINT right_thumb_3
										{
											OFFSET -0.024004 -0.008353 0.006547
											CHANNELS 3 Zrotation Yrotation Xrotation
											End Site
											{
												OFFSET 0.000000 0.000000 0.000000
											}
										}
									}
								}
							}
						}
					}
				}
			}
		}
	}
}
MOTION
Frames: 4
Frame Time: 0.050000
-0.062160 0.945775 -0.077286 1.719567 -3.997231 -13.091558 17.843134 0.202798 -3.618181 0.840581 -2.479294 21.400818 -5.160563 1.535489 14.909352 0.000000 0.000000 0.000000 -0.577778 -0.845713 7.913317 3.057101 0.115682 14.959028 -3.885512 -1.483916 -9.478362 0.000000 0.000000 0.000000 5.107692 -1.391180 15.222655 -5.972855 -0.153249 -12.049595 4.927055 0.100811 24.492283 -0.266241 0.442308 -2.870127 0.000000 0.000000 0.000000 -10.359817 -7.127754 3.566406 -53.397251 -10.962942 -7.528345 -141.340014 -62.546685 138.772039 3.228708 -5.598866 -2.756164 -14.784142 4.144680 1.497148 -50.204268 11.728850 5.501960 0.000000 0.000000 0.000000 -29.209063 -0.578499 -4.504477 -57.390895 1.783658 -4.419334 0.000000 0.000000 0.000000 -16.329100 -25.060654 -29.868539 -48.022347 -6.592960 -8.797885 0.000000 0.000000 0.000000 -28.842584 -11.729676 -5.888446 -56.249882 -11.062878 -11.140283 0.000000 0.000000 0.000000 9.849358 26.845348 23.170686 0.609367 -14.289384 -5.149682 0.000000 0.000000 0.000000 11.421536 -0.337934 -1.722251 50.791527 15.741173 -1.860873 135.092605 81.275236 126.216886 -0.936833 4.645798 -4.701031 24.802682 -3.495928 1.521246 55.574529 1.686156 -9.352201 0.000000 0.000000 0.000000 32.996382 3.531430 -5.515674 56.116652 16.524166 -25.361417 0.000000 0.000000 0.000000 9.777547 39.206359 -50.461670 35.087642 9.749298 -14.927665 0.000000 0.000000 0.000000 34.023682 21.897687 -8.884619 41.577640 22.488860 -31.378246 0.000000 0.000000 0.000000 -8.204772 -23.645589 18.667585 -3.743106 14.099023 -6.618154 0.000000 0.000000 0.000000 
-0.058863 0.946903 -0.077286 1.396120 -4.031709 -12.621136 17.502022 0.201426 -6.077027 0.632398 -2.667529 23.760571 -4.517985 2.898497 15.522976 0.000000 0.000000 0.000000 0.151806 -0.863830 7.378909 2.649821 0.159866 13.924709 -4.233653 -3.762098 -7.487017 0.000000 0.000000 0.000000 4.303588 -1.373110 15.405157 -5.513472 -0.415186 -12.259908 5.292666 -0.942017 23.335013 -0.469598 0.499540 -3.112621 0.000000 0.000000 0.000000 -11.852788 -4.420116 2.013388 -51.550868 -9.637994 -7.530428 -144.496528 -59.063935 141.100197 0.800968 -7.338358 -0.795559 -14.032078 4.490330 1.591303 -48.113671 9.835151 2.806086 0.000000 0.000000 0.000000 -26.777200 1.495661 -3.804346 -54.547713 2.368822 -4.413339 0.000000 0.000000 0.000000 -18.064791 -22.849178 -27.068709 -50.415027 -6.108257 -7.935825 0.000000 0.000000 0.000000 -28.569617 -9.284758 -5.333497 -56.973849 -8.591580 -8.664170 0.000000 0.000000 0.000000 5.737791 23.656183 20.956139 5.538915 -10.364819 -5.535515 0.000000 0.000000 0.000000 11.260537 0.107932 -1.555909 50.010843 15.194858 -2.124351 134.977550 77.506572 121.972117 -1.816872 4.561313 -2.698810 22.464328 -0.540456 1.042793 45.568754 -2.513845 -4.171382 0.000000 0.000000 0.000000 27.761892 7.143926 -6.132910 51.424897 11.953315 -21.703089 0.000000 0.000000 0.000000 -1.566143 35.838478 -49.090011 41.732668 11.749735 -17.512410 0.000000 0.000000 0.000000 27.909519 22.997468 -10.276023 40.976703 17.747354 -26.134657 0.000000 0.000000 0.000000 -8.776462 -24.565531 20.337741 -1.874425 15.069142 -5.991833 0.000000 0.000000 0.000000 
-0.053680 0.948354 -0.077286 1.930253 -3.608640 -13.221785 16.706551 0.138594 -6.859473 0.523133 -2.715420 24.270178 -3.930483 3.819538 15.500017 0.000000 0.000000 0.000000 -0.644899 -0.871717 8.180630 2.177288 0.230385 14.000521 -4.041628 -3.250798 -7.665635 0.000000 0.000000 0.000000 3.608865 -1.211433 14.312039 -5.703963 0.069880 -10.851967 5.728499 -0.202585 23.840045 -0.308571 0.557942 -3.625482 0.000000 0.000000 0.000000 -11.667494 -4.872014 2.168400 -51.167257 -10.153498 -7.559578 -148.668548 -56.827937 146.085874 -0.959150 -5.689614 -1.995819 -15.288540 1.640544 0.940633 -44.223468 7.022086 1.077098 0.000000 0.000000 0.000000 -25.808267 -7.323888 -6.368873 -51.623449 1.204370 -5.150874 0.000000 0.000000 0.000000 -8.949110 -27.626239 -34.557851 -49.063158 -5.921036 -7.599483 0.000000 0.000000 0.000000 -27.396322 -13.848951 -7.194962 -51.549412 -10.346783 -11.532026 0.000000 0.000000 0.000000 9.434341 24.741863 21.404725 1.105781 -14.499498 -5.294177 0.000000 0.000000 0.000000 11.441876 -1.280661 -2.341257 50.291782 13.316655 -2.644736 140.251008 73.492450 124.889105 -2.931856 4.744808 -3.040310 19.734683 -1.061493 1.034422 26.325586 -2.080272 -1.792798 0.000000 0.000000 0.000000 25.549638 9.010357 -6.500393 42.209447 11.669631 -23.855704 0.000000 0.000000 0.000000 -0.997109 31.202105 -41.622179 30.619925 10.880726 -20.368773 0.000000 0.000000 0.000000 23.805119 20.734230 -9.962073 34.328101 16.858652 -28.758989 0.000000 0.000000 0.000000 -11.985416 -25.401728 20.590673 2.421761 15.723704 -4.479651 0.000000 0.000000 0.000000 
-0.051325 0.949965 -0.079926 2.196587 -3.245831 -14.565302 16.655149 0.141046 -6.180494 -0.289907 -2.374085 23.121956 -2.840098 5.761736 15.962534 0.000000 0.000000 0.000000 -1.023631 -0.979338 9.563710 2.444376 0.166424 13.590461 -4.408275 -4.777157 -6.703647 0.000000 0.000000 0.000000 2.871060 -1.263046 15.471392 -5.959080 0.737896 -8.929510 5.739834 -0.643782 21.060034 -0.439367 0.405483 -2.415543 0.000000 0.000000 0.000000 -10.624468 -4.099026 1.708604 -51.088471 -7.649783 -7.777977 -151.244633 -53.587180 148.135473 -0.986369 -6.336192 -5.108090 -15.405757 0.526173 0.765762 -40.515606 2.261333 -3.271455 0.000000 0.000000 0.000000 -22.777843 -8.415790 -6.325671 -48.851783 -2.857544 -9.298626 0.000000 0.000000 0.000000 -9.882268 -23.713286 -30.746438 -45.151068 -9.289956 -12.737672 0.000000 0.000000 0.000000 -23.900420 -14.617179 -7.665408 -47.241911 -14.482637 -17.343962 0.000000 0.000000 0.000000 8.605903 24.331923 20.247257 -0.670140 -15.964372 -5.241212 0.000000 0.000000 0.000000 10.852727 -0.901241 -2.056312 50.566732 11.402792 -3.142998 143.419859 71.098864 126.279554 -0.593719 5.365859 -4.076772 17.348098 -3.215418 1.364999 17.634144 0.208085 -4.571805 0.000000 0.000000 0.000000 18.673118 6.756484 -5.400302 35.997782 10.330783 -22.559072 0.000000 0.000000 0.000000 -9.724480 23.287528 -32.447746 33.110201 13.120192 -22.546358 0.000000 0.000000 0.000000 17.336054 16.290780 -9.059843 31.245510 14.829914 -25.757135 0.000000 0.000000 0.000000 -18.740027 -27.496564 22.059902 6.951084 17.238209 -3.141731 0.000000 0.000000 0.000000 
